<?xml version="1.0" standalone="no"?>
<!DOCTYPE svg PUBLIC "-//W3C//DTD SVG 20010904//EN" "http://www.w3.org/TR/2001/REC-SVG-20010904/DTD/svg10.dtd">
<svg
    version="1.0"
    xmlns="http://www.w3.org/2000/svg"
    width="26pt"
    height="24pt"
    viewBox="0 0 50.000000 38.000000"
    preserveAspectRatio="xMidYMid meet"
>
    <g
        transform="translate(0.000000,38.000000) scale(0.100000,-0.100000)"
        fill="#000000"
        stroke="none"
    >
        <path
            d="M140 245 c0 -19 5 -35 10 -35 6 0 10 11 10 25 0 23 3 25 49 25 49 0
50 -1 53 -32 3 -32 4 -33 56 -36 l52 -3 0 -50 0 -49 -40 0 c-22 0 -40 -5 -40
-11 0 -6 21 -9 53 -7 l52 3 0 100 0 100 -127 3 -128 3 0 -36z m230 -10 c0 -22
-4 -25 -40 -25 -36 0 -40 3 -40 25 0 23 4 25 40 25 36 0 40 -2 40 -25z"
        />
        <path
            d="M167 174 c-11 -11 2 -24 24 -24 17 0 14 -6 -17 -35 -46 -43 -41 -56
7 -15 41 35 49 37 49 10 0 -11 5 -20 11 -20 6 0 9 17 7 43 -3 40 -4 42 -38 45
-20 2 -39 0 -43 -4z"
        />
    </g>
</svg>